# AST/ASF file generated using VICON BodyLanguage
# -----------------------------------------------
:version 1.10
:name VICON
:units
  mass 1.0
  length 0.45
  angle deg
:documentation
   .ast/.asf automatically generated from VICON data using
   VICON BodyBuilder and BodyLanguage model FoxedUp or BRILLIANT.MOD
:root
   order TX TY TZ RX RY RZ
   axis XYZ
   position 0 0 0  
   orientation 0 0 0 
:bonedata
  begin
     id 1 
     name lhipjoint
     direction 0.612567 -0.751349 0.245431 
     length 2.42285 
     axis 0 0 0  XYZ
  end
  begin
     id 2 
     name lfemur
     direction 0.34202 -0.939693 0  
     length 7.11304  
     axis 0 0 20  XYZ
    dof rx ry rz
    limits (-160.0 20.0)
           (-70.0 70.0)
           (-60.0 70.0)
  end
  begin
     id 3 
     name ltibia
     direction 0.34202 -0.939693 0   
     length 7.84529   
     axis 0 0 20   XYZ
    dof rx
    limits (-10.0 170.0)
  end
  begin
     id 4 
     name lfoot
     direction 0.0779239 -0.214094 0.9737   
     length 1.97176   
     axis -90 7.62852e-016 20   XYZ
    dof rx rz
    limits (-45.0 90.0)
           (-70.0 20.0)
  end
  begin
     id 5 
     name ltoes
     direction 1.53565e-011 -4.21709e-011 1   
     length 0.993197   
     axis -90 7.62852e-016 20   XYZ
    dof rx
    limits (-90.0 20.0)
  end
  begin
     id 6 
     name rhipjoint
     direction -0.665722 -0.709315 0.231701   
     length 2.56642  
     axis 0 0 0  XYZ 
  end
  begin
     id 7 
     name rfemur
     direction -0.34202 -0.939693 0   
     length 7.32108   
     axis 0 0 -20   XYZ
    dof rx ry rz
    limits (-160.0 20.0)
           (-70.0 70.0)
           (-70.0 60.0)
  end
  begin
     id 8 
     name rtibia
     direction -0.34202 -0.939693 0   
     length 7.81254   
     axis 0 0 -20   XYZ
    dof rx
    limits (-10.0 170.0)
 end
 begin
     id 9 
     name rfoot
     direction -0.0832806 -0.228812 0.969902   
     length 2.08278  
     axis -90 -7.62852e-016 -20   XYZ
    dof rx rz
    limits (-45.0 90.0)
           (-20.0 70.0)
  end
  begin
     id 10 
     name rtoes
     direction -1.53589e-011 -4.22086e-011 1   
     length 1.04609   
     axis -90 -7.62852e-016 -20   XYZ
    dof rx
    limits (-90.0 20.0)
  end
  begin
     id 11 
     name lowerback
     direction -0.00506013 0.988403 -0.151766   
     length 2.01978   
     axis 0 0 0   XYZ
    dof rx ry rz
    limits (-20.0 45.0)
           (-30.0 30.0)
           (-30.0 30.0)
  end
  begin
     id 12 
     name upperback
     direction -0.00836389 0.99968 0.0238859   
     length 2.01276   
     axis 0 0 0   XYZ
    dof rx ry rz
    limits (-20.0 45.0)
           (-30.0 30.0)
           (-30.0 30.0)
  end
  begin
     id 13 
     name thorax
     direction -0.00684136 0.995386 0.0957043   
     length 2.07303   
     axis 0 0 0   XYZ
    dof rx ry rz
    limits (-20.0 45.0)
           (-30.0 30.0)
           (-30.0 30.0)
  end
  begin
     id 14 
     name lowerneck
     direction -0.0161045 0.999661 0.0204485   
     length 1.91243   
     axis 0 0 0   XYZ
    dof rx ry rz
    limits (-20.0 45.0)
           (-30.0 30.0)
           (-30.0 30.0)
  end
  begin
     id 15 
     name upperneck
     direction 0.0553583 0.990946 -0.122319   
     length 1.91574   
     axis 0 0 0   XYZ
    dof rx ry rz
    limits (-20.0 45.0)
           (-30.0 30.0)
           (-30.0 30.0)
  end
  begin
     id 16
     name head
     direction 0.0180273 0.998839 -0.0446756  
     length 1.92693  
     axis 0 0 0   XYZ
    dof rx ry rz
    limits (-20.0 45.0)
           (-30.0 30.0)
           (-30.0 30.0)
  end
  begin
     id 17 
     name lclavicle
     direction 0.945646 0.319323 -0.0615358  
     length 4.0076  
     axis 0 0 0   XYZ
    dof ry rz
    limits (-20.0 10.0)
           (0.0 20.0)
  end
  begin
     id 18 
     name lhumerus
     direction 1 -4.48967e-011 -2.79996e-027   
     length 5.64147   
     axis 180 -30 -90   XYZ
    dof rx ry rz
    limits (-60.0 90.0)
           (-90.0 90.0)
           (-90.0 90.0)
  end
  begin
     id 19
     name lradius
     direction 1 -4.48976e-011 -9.5122e-027   
     length 2.86444   
     axis 180 -30 -90   XYZ
    dof rx
    limits (-10.0 170.0)
  end
  begin
     id 20
     name lwrist
     direction 1 -4.48983e-011 -1.24047e-026   
     length 1.43222   
     axis 9.05591e-015 90 90   XYZ
    dof ry
    limits (-180.0 0.0)
 end
  begin
     id 21 
     name lhand
     direction 1 -4.4892e-011 -2.48094e-026   
     length 0.722123   
     axis 1.58305e-014 90 90   XYZ
    dof rx rz
    limits (-90.0 90.0)
           (-45.0 45.0)
  end
  begin
     id 22 
     name lfingers
     direction 1 -4.48895e-011 -4.96187e-026   
     length 0.582194   
     axis 3.1661e-014 90 90   XYZ
    dof rx
    limits (0.0 90.0)
  end
  begin
     id 23
     name lthumb
     direction 0.707107 -6.34961e-011 0.707107   
     length 0.835918   
     axis -90 45 2.85299e-015   XYZ
    dof rx rz
    limits (-45.0 45.0)
           (-45.0 45.0)
  end
  begin
     id 24 
     name rclavicle
     direction -0.932635 0.324218 -0.15835   
     length 3.65819  
     axis 0 0 0   XYZ 
    dof ry rz
    limits (-10.0 20.0)
           (-20.0 0.0)
  end
  begin
     id 25 
     name rhumerus
     direction -1 -4.48965e-011 -4.02296e-027  
     length 5.44729   
     axis 180 30 90   XYZ
    dof rx ry rz
    limits (-90.0 60.0)
           (-90.0 90.0)
           (-90.0 90.0)
  end
  begin
     id 26 
     name rradius
     direction -1 -4.48957e-011 -8.81087e-027   
     length 3.08821   
     axis 180 30 90   XYZ
    dof rx
    limits (-10.0 170.0)
  end
  begin
     id 27 
     name rwrist
     direction -1 -4.49015e-011 -1.24047e-026   
     length 1.5441   
     axis 9.05591e-015 -90 -90   XYZ
    dof ry
    limits (-180.0 0.0)
  end
  begin
     id 28
     name rhand
     direction -1 -4.4891e-011 -2.48094e-026   
     length 0.821049   
     axis 1.58305e-014 -90 -90   XYZ
    dof rx rz
    limits (-90.0 90.0)
           (-45.0 45.0)
  end
  begin
     id 29
     name rfingers
     direction -1 -4.48985e-011 -4.96187e-026   
     length 0.661951   
     axis 3.1661e-014 -90 -90   XYZ
    dof rx
    limits (0.0 90.0)
  end
  begin
     id 30
     name rthumb
     direction -0.707107 -6.34906e-011 0.707107   
     length 0.950433   
     axis -90 -45 -2.85299e-015   XYZ
    dof rx rz
    limits (-45.0 45.0)
           (-45.0 45.0)
  end
:hierarchy
  begin
    root lhipjoint rhipjoint lowerback
    lhipjoint lfemur
    lfemur ltibia
    ltibia lfoot
    lfoot ltoes
    rhipjoint rfemur
    rfemur rtibia
    rtibia rfoot
    rfoot rtoes
    lowerback upperback
    upperback thorax
    thorax lowerneck lclavicle rclavicle
    lowerneck upperneck
    upperneck head
    lclavicle lhumerus
    lhumerus lradius
    lradius lwrist
    lwrist lhand lthumb
    lhand lfingers
    rclavicle rhumerus
    rhumerus rradius
    rradius rwrist
    rwrist rhand rthumb
    rhand rfingers
  end

#!OML:ASF F:\VICON\USERDATA\INSTALL\rory3\rory3.ASF
:FULLY-SPECIFIED
:DEGREES
840
root 5.68123 17.7475 2.3375 -178.868 -35.6203 -180.182
lowerback -2.86188 -0.102738 2.91964
upperback 1.72059 -0.266982 -0.184779
thorax 3.36335 -0.0679497 -1.84311
lowerneck -2.51666 -4.41632 -3.99504
upperneck 13.1927 -6.76385 4.91816
head 4.66303 -3.42198 1.81914
rclavicle 3.20665e-014 0
rhumerus -38.3552 -6.09514 -80.9262
rradius 23.7189
rwrist 21.4581
rhand -7.29524 9.41608
rfingers 7.12502
rthumb 18.5868 -19.7159
lclavicle 3.20665e-014 0
lhumerus -32.6981 1.19462 85.9847
lradius 20.4738
lwrist 26.8598
lhand -15.2646 8.39989
lfingers 7.12502
lthumb 10.9095 38.0965
rfemur -12.5526 -2.3606 24.5122
rtibia 18.6124
rfoot -11.4403 1.37463
rtoes -0.381591
lfemur 5.07298 8.4964 -18.8646
ltibia 43.4351
lfoot 7.21791 0.698355
ltoes -3.36194
841
root 5.63502 17.7471 2.24633 -178.964 -35.7771 -180.211
lowerback -2.89018 -0.0784863 3.00037
upperback 1.7173 -0.237777 -0.216542
thorax 3.37731 -0.0508875 -1.91963
lowerneck -2.55205 -4.41655 -3.98577
upperneck 13.4294 -6.79512 4.95309
head 4.7437 -3.43824 1.82306
rclavicle 1.53064e-014 9.93923e-016
rhumerus -38.3625 -6.06367 -80.9669
rradius 23.8067
rwrist 21.2716
rhand -7.4143 9.33749
rfingers 7.12502
rthumb 18.4723 -19.8054
lclavicle 1.53064e-014 9.93923e-016
lhumerus -32.7754 1.30009 85.8652
lradius 20.4656
lwrist 26.9633
lhand -14.9336 8.38446
lfingers 7.12502
lthumb 11.2288 38.0639
rfemur -12.0133 -2.85431 24.5413
rtibia 18.5489
rfoot -11.4784 1.74599
rtoes -1.21781
lfemur 4.35423 8.22705 -18.8569
ltibia 44.8585
lfoot 6.20493 0.389495
ltoes -5.43565
842
root 5.59402 17.7436 2.16083 -179.114 -36.0197 -180.092
lowerback -2.91083 -0.0787077 3.19059
upperback 1.74074 -0.247584 -0.22745
thorax 3.41245 -0.0505859 -2.03841
lowerneck -2.70231 -4.42534 -3.87102
upperneck 13.6532 -6.82708 4.92258
head 4.83441 -3.44914 1.78698
rclavicle 7.42026e-014 -4.37326e-015
rhumerus -38.2829 -5.86276 -81.1396
rradius 23.9628
rwrist 20.7994
rhand -7.46569 9.2789
rfingers 7.12502
rthumb 18.4229 -19.8687
lclavicle 7.42026e-014 -4.37326e-015
lhumerus -32.7485 1.46146 85.6923
lradius 20.4186
lwrist 26.8349
lhand -15.047 7.99596
lfingers 7.12502
lthumb 11.1195 37.6814
rfemur -11.5446 -3.22373 24.7045
rtibia 18.4896
rfoot -11.6305 1.86035
rtoes -1.63718
lfemur 3.56558 7.86609 -18.6902
ltibia 46.1911
lfoot 5.04482 -0.189781
ltoes -7.7686
843
root 5.55954 17.741 2.07638 -179.288 -36.1908 -179.821
lowerback -2.95219 -0.0518031 3.36501
upperback 1.7581 -0.224379 -0.155864
thorax 3.45531 -0.0352635 -2.06135
lowerneck -2.60227 -4.42148 -3.82591
upperneck 13.4851 -6.8245 5.00613
head 4.76702 -3.44203 1.80991
rclavicle 8.80865e-014 4.96962e-015
rhumerus -38.2408 -5.60015 -81.2876
rradius 24.2205
rwrist 20.6238
rhand -7.5878 9.17966
rfingers 7.12502
rthumb 18.3054 -19.979
lclavicle 8.80865e-014 4.96962e-015
lhumerus -32.721 1.52999 85.6268
lradius 20.5082
lwrist 26.757
lhand -14.7501 8.51642
lfingers 7.12502
lthumb 11.4058 38.1862
rfemur -11.1751 -3.54656 25.0349
rtibia 18.3761
rfoot -11.7471 1.88111
rtoes -2.26504
lfemur 2.67512 7.47164 -18.3941
ltibia 47.4263
lfoot 3.84799 -0.654355
ltoes -7.36775
844
root 5.52704 17.7403 1.99077 -179.486 -36.3044 -179.509
lowerback -2.99847 -0.0161491 3.5304
upperback 1.76419 -0.190526 -0.0546779
thorax 3.49016 -0.0155476 -2.04796
lowerneck -2.2521 -4.38526 -3.9927
upperneck 13.049 -6.78227 5.32921
head 4.58841 -3.41774 1.95196
rclavicle 8.48624e-014 -9.14409e-015
rhumerus -38.2119 -5.13362 -81.5088
rradius 24.3974
rwrist 20.7222
rhand -8.0531 8.92215
rfingers 7.12502
rthumb 17.8577 -20.2779
lclavicle 8.48624e-014 -9.14409e-015
lhumerus -32.736 1.40775 85.6943
lradius 20.7101
lwrist 27.1396
lhand -14.5551 8.62288
lfingers 7.12502
lthumb 11.5938 38.2822
rfemur -10.7976 -3.97496 25.4042
rtibia 18.2493
rfoot -11.7115 2.09642
rtoes -2.31863
lfemur 1.79725 7.11425 -18.0519
ltibia 48.5607
lfoot 2.58694 -1.11358
ltoes -5.67407
845
root 5.49215 17.7399 1.9073 -179.676 -36.4059 -179.352
lowerback -2.92782 0.0171319 3.63721
upperback 1.78561 -0.150645 -0.0192146
thorax 3.47508 0.00593485 -2.06875
lowerneck -2.12802 -4.38958 -4.148
upperneck 12.8909 -6.80306 5.58265
head 4.53354 -3.42459 2.0584
rclavicle -4.55838e-014 2.78299e-015
rhumerus -38.139 -4.99309 -81.5915
rradius 24.4854
rwrist 20.9126
rhand -8.29871 8.79477
rfingers 7.12502
rthumb 17.6214 -20.4267
lclavicle -4.55838e-014 2.78299e-015
lhumerus -32.7587 1.24113 85.7714
lradius 20.9067
lwrist 27.4189
lhand -14.6118 8.26017
lfingers 7.12502
lthumb 11.5391 37.9225
rfemur -10.3323 -4.39939 25.6095
rtibia 18.1718
rfoot -11.7132 2.35912
rtoes -2.42164
lfemur 1.03677 6.78957 -17.8746
ltibia 49.5648
lfoot 1.25351 -1.61165
ltoes -5.69202
846
root 5.45826 17.7386 1.8262 -179.823 -36.5419 -179.345
lowerback -2.80283 0.0107155 3.66684
upperback 1.809 -0.155202 -0.0504864
thorax 3.42835 0.00400323 -2.11758
lowerneck -2.0582 -4.41009 -4.13275
upperneck 12.8319 -6.83281 5.60434
head 4.50552 -3.43895 2.06333
rclavicle 2.85877e-014 -1.21259e-014
rhumerus -38.0629 -5.10983 -81.6048
rradius 24.5073
rwrist 21.0431
rhand -8.46915 8.93258
rfingers 7.12502
rthumb 17.4574 -20.3035
lclavicle 2.85877e-014 -1.21259e-014
lhumerus -32.8486 1.0361 85.8007
lradius 21.1631
lwrist 27.707
lhand -14.4721 8.55436
lfingers 7.12502
lthumb 11.6739 38.2091
rfemur -9.85253 -4.55938 25.6672
rtibia 18.1743
rfoot -11.8595 2.39968
rtoes -2.06864
lfemur 0.325368 6.45447 -17.8244
ltibia 50.4475
lfoot -0.159096 -2.01727
ltoes -6.19313
847
root 5.42638 17.7345 1.74511 -179.903 -36.6186 -179.34
lowerback -2.78933 0.0434532 3.70076
upperback 1.84875 -0.111855 -0.101294
thorax 3.46471 0.0281466 -2.18663
lowerneck -2.06864 -4.42989 -4.09687
upperneck 12.8108 -6.86619 5.65656
head 4.50309 -3.45072 2.07165
rclavicle -7.41715e-015 -3.67752e-015
rhumerus -37.9596 -5.23768 -81.6494
rradius 24.5079
rwrist 21.0983
rhand -8.66239 9.20196
rfingers 7.12502
rthumb 17.2714 -20.0506
lclavicle -7.41715e-015 -3.67752e-015
lhumerus -32.902 0.66573 85.8408
lradius 21.4611
lwrist 28.0088
lhand -14.2006 8.99048
lfingers 7.12502
lthumb 11.9356 38.6302
rfemur -9.49915 -4.44259 25.7303
rtibia 18.2795
rfoot -12.0514 2.30364
rtoes -0.993085
lfemur -0.45491 6.25466 -17.7458
ltibia 51.2412
lfoot -1.47926 -2.43143
ltoes -6.25407
848
root 5.39387 17.7274 1.66483 -179.95 -36.6436 -179.378
lowerback -2.80602 0.109368 3.6874
upperback 1.89574 -0.0237352 -0.147553
thorax 3.52863 0.0740301 -2.22191
lowerneck -2.07297 -4.43653 -4.13367
upperneck 12.795 -6.89466 5.82664
head 4.50721 -3.45827 2.1282
rclavicle -3.74274e-014 -1.07344e-014
rhumerus -37.8012 -5.43783 -81.6194
rradius 24.4064
rwrist 21.1423
rhand -8.68221 9.53569
rfingers 7.12502
rthumb 17.2523 -19.7185
lclavicle -3.74274e-014 -1.07344e-014
lhumerus -32.9194 0.451869 85.8323
lradius 21.6797
lwrist 27.9732
lhand -13.8313 9.2196
lfingers 7.12502
lthumb 12.2918 38.8383
rfemur -9.20218 -4.50683 25.768
rtibia 18.4421
rfoot -12.2402 2.30498
rtoes -0.960306
lfemur -1.22658 6.06482 -17.7325
ltibia 51.9593
lfoot -2.69325 -2.75863
ltoes -5.79447
849
root 5.3644 17.7188 1.58784 -180.045 -36.6851 -179.419
lowerback -2.69335 0.124827 3.59139
upperback 1.91879 0.00407113 -0.133566
thorax 3.49026 0.0846587 -2.15186
lowerneck -2.09412 -4.43144 -4.24103
upperneck 12.8615 -6.89381 5.88174
head 4.53633 -3.45982 2.16135
rclavicle 4.45216e-014 0
rhumerus -37.6583 -5.20394 -81.7108
rradius 24.3551
rwrist 20.9311
rhand -8.77931 9.69112
rfingers 7.12502
rthumb 17.1589 -19.5712
lclavicle 4.45216e-014 0
lhumerus -32.9397 0.659044 85.7253
lradius 21.8268
lwrist 27.5998
lhand -13.4333 9.43155
lfingers 7.12502
lthumb 12.6755 39.0269
rfemur -8.89464 -4.7385 25.8077
rtibia 18.6299
rfoot -12.4528 2.31441
rtoes -1.33761
lfemur -1.96152 5.85919 -17.7357
ltibia 52.6169
lfoot -3.7361 -2.89026
ltoes -5.98123
850
root 5.33373 17.711 1.5123 -180.195 -36.758 -179.303
lowerback -2.5922 0.121949 3.6288
upperback 1.9338 -0.000406941 -0.0784232
thorax 3.44845 0.0815547 -2.11611
lowerneck -2.25792 -4.44076 -4.29022
upperneck 13.0331 -6.89831 5.79592
head 4.61543 -3.46436 2.13691
rclavicle 6.34434e-014 -1.07344e-014
rhumerus -37.5354 -5.05648 -81.7441
rradius 24.3384
rwrist 20.8321
rhand -8.80025 9.71672
rfingers 7.12502
rthumb 17.1387 -19.5474
lclavicle 6.34434e-014 -1.07344e-014
lhumerus -33.0478 0.366264 85.9453
lradius 22.1607
lwrist 28.371
lhand -13.6685 9.32354
lfingers 7.12502
lthumb 12.4487 38.9328
rfemur -8.61974 -4.75729 25.9855
rtibia 18.829
rfoot -12.643 2.09805
rtoes -2.31223
lfemur -2.76179 5.63201 -17.6126
ltibia 53.2064
lfoot -4.75044 -2.90514
ltoes -6.95637
851
root 5.3022 17.703 1.43659 -180.295 -36.7957 -179.187
lowerback -2.59509 0.143479 3.71462
upperback 1.96438 0.0225657 -0.0605812
thorax 3.48361 0.0955299 -2.1446
lowerneck -2.36776 -4.43629 -4.28118
upperneck 13.1115 -6.88484 5.73823
head 4.65505 -3.457 2.11496
rclavicle -3.72721e-015 8.34896e-015
rhumerus -37.3358 -5.23555 -81.6869
rradius 24.2129
rwrist 21.0111
rhand -8.77684 9.79771
rfingers 7.12502
rthumb 17.1612 -19.4644
lclavicle -3.72721e-015 8.34896e-015
lhumerus -33.2085 -0.33329 86.3437
lradius 22.6558
lwrist 29.9943
lhand -14.1568 9.17178
lfingers 7.12502
lthumb 11.9779 38.8091
rfemur -8.39816 -4.68923 26.1623
rtibia 19.0422
rfoot -12.8746 1.91405
rtoes -2.88344
lfemur -3.60096 5.46649 -17.5037
ltibia 53.7168
lfoot -5.77975 -2.74274
ltoes -7.9989
